<svg preserveAspectRatio="none" width="100%" height="100%" overflow="visible" style="display: block;" viewBox="0 0 38.6895 22.1886" fill="none" xmlns="http://www.w3.org/2000/svg">
<g id="Group 20">
<g id="Group 18">
<path id="Exclude" d="M3.22251 7.07522C5.12186 5.1603 8.21384 5.14756 10.1288 7.0469L19.3817 16.2237L28.5604 7.12014C30.4753 5.22083 33.5683 5.23355 35.4676 7.14846L38.6473 10.3555C38.704 10.4126 38.7035 10.5049 38.6463 10.5615L28.3514 20.7725C26.4365 22.6713 23.3444 22.6589 21.4452 20.7442L19.3075 18.5899L17.244 20.6709C15.3446 22.585 12.2524 22.5982 10.3377 20.6992L0.0428249 10.4873C-0.0139614 10.4308 -0.0142594 10.3384 0.0418483 10.2813L3.22251 7.07522ZM34.3963 8.71193C33.064 7.36889 30.8949 7.36025 29.5516 8.6924L20.9022 17.2715C20.8458 17.3282 20.8449 17.4206 20.9012 17.4776L22.5077 19.0967C23.8399 20.4398 26.0091 20.4481 27.3524 19.1162L36.0018 10.5381C36.0588 10.4815 36.0591 10.3892 36.0028 10.3321L34.3963 8.71193ZM9.13853 8.69143C7.79535 7.35917 5.62621 7.36802 4.2938 8.71096L2.68736 10.3311C2.63131 10.3883 2.63139 10.4807 2.68833 10.5371L11.3377 19.1153C12.6808 20.4473 14.8491 20.4383 16.1815 19.0957L17.7879 17.4766C17.8446 17.4194 17.8441 17.3272 17.787 17.2705L9.13853 8.69143Z" fill="var(--fill-0, #333333)"/>
</g>
<path id="Ellipse 3 (Stroke)" d="M22.6686 5.24801C22.6686 3.39625 21.1675 1.89511 19.3157 1.89511C17.464 1.89511 15.9628 3.39625 15.9628 5.24801C15.9628 7.09976 17.464 8.6009 19.3157 8.6009V10.496C16.4173 10.496 14.0677 8.1464 14.0677 5.24801C14.0677 2.34961 16.4173 0 19.3157 0C22.2141 0 24.5637 2.34961 24.5637 5.24801C24.5637 8.1464 22.2141 10.496 19.3157 10.496V8.6009C21.1675 8.6009 22.6686 7.09976 22.6686 5.24801Z" fill="var(--fill-0, #333333)"/>
</g>
</svg>
