<svg width="16" height="16" viewBox="0 0 16 16" fill="none" xmlns="http://www.w3.org/2000/svg">
<path d="M7.49985 3C3.90994 3.00018 1.0003 5.90992 1 9.49985C1.0003 13.0898 3.90994 15.9995 7.49985 15.9997C11.0901 15.9995 13.9998 13.0898 14 9.49985C13.9998 5.90992 11.0901 3.00018 7.49985 3ZM3.4783 5.47828C4.07092 4.88597 4.79255 4.4252 5.59728 4.13956C5.21177 4.60611 4.8904 5.20358 4.6386 5.89446H3.10163C3.22046 5.74986 3.34599 5.61061 3.4783 5.47828ZM2.66593 6.50383H4.44292C4.2142 7.31453 4.07704 8.22618 4.05284 9.19516H1.8208C1.87278 8.2099 2.17559 7.2931 2.66593 6.50383ZM2.66593 12.4959C2.17559 11.7066 1.87278 10.7898 1.8208 9.80454H4.05495C4.07935 10.7725 4.21263 11.6858 4.44104 12.4959L2.66593 12.4959ZM3.4783 13.5214C3.34599 13.3891 3.22044 13.2498 3.10161 13.1052H4.63959C4.74827 13.4042 4.86859 13.6878 5.00298 13.9484C5.17955 14.2896 5.3777 14.5951 5.5958 14.8597C4.79163 14.5741 4.07051 14.1133 3.4783 13.5214ZM7.19526 15.1789C7.10015 15.1739 7.00562 15.1668 6.9118 15.1571C6.76225 15.09 6.61417 14.9984 6.46746 14.8788C6.01978 14.5142 5.60479 13.8969 5.28939 13.1052H7.19524V15.1789H7.19526ZM7.19526 12.4959H5.07677C4.83614 11.7044 4.68789 10.7868 4.66219 9.80451H7.19524V12.4959H7.19526ZM7.19526 9.19516H4.66412C4.68971 8.21229 4.83868 7.29546 5.07949 6.50383H7.19529L7.19526 9.19516ZM7.19526 5.89446H5.29221C5.37115 5.69666 5.45387 5.50567 5.54444 5.33091C5.8146 4.80723 6.13274 4.39425 6.46749 4.12089C6.61417 4.0013 6.76225 3.90964 6.91183 3.84261C7.00564 3.83291 7.10015 3.82575 7.19529 3.8208L7.19526 5.89446ZM12.3342 6.50383C12.8245 7.2931 13.1272 8.20993 13.1792 9.19516H10.9451C10.9207 8.22717 10.7874 7.31392 10.5589 6.50383H12.3342ZM11.5217 5.47828C11.654 5.61059 11.7796 5.74986 11.8984 5.89446H10.3603C10.2516 5.59553 10.1312 5.31187 9.99691 5.05123C9.82037 4.71006 9.6222 4.40458 9.40412 4.13996C10.2084 4.42579 10.9294 4.8864 11.5217 5.47828ZM7.80464 3.8208C7.89975 3.82575 7.99428 3.83309 8.088 3.84261C8.23755 3.90987 8.38565 4.0013 8.53243 4.12089C8.98022 4.48548 9.39511 5.10278 9.71048 5.89443H7.80464V3.8208ZM7.80464 6.50383H9.92313C10.1637 7.29528 10.3121 8.21287 10.3377 9.19516H7.80464V6.50383ZM7.80464 9.80454H10.3357C10.3101 10.7874 10.1612 11.7042 9.92034 12.4959H7.80464V9.80454ZM8.53241 14.8788C8.38563 14.9984 8.23752 15.0898 8.08797 15.1571C7.99425 15.1666 7.89972 15.1739 7.80461 15.1789V13.1052H9.70766C9.62872 13.303 9.546 13.494 9.45546 13.6688C9.18533 14.1924 8.86716 14.6054 8.53241 14.8788ZM11.5217 13.5214C10.9292 14.1137 10.2074 14.5745 9.40262 14.8601C9.78823 14.3935 10.1094 13.7961 10.3613 13.1052H11.8984C11.7795 13.2498 11.654 13.3891 11.5217 13.5214ZM12.3342 12.4959H10.5569C10.7856 11.6852 10.9229 10.7733 10.9471 9.80451H13.1792C13.1272 10.7898 12.8245 11.7066 12.3342 12.4959Z" fill="white"/>
</svg>
