<svg width="166" height="23" viewBox="0 0 166 23" fill="none" xmlns="http://www.w3.org/2000/svg">
<path fill-rule="evenodd" clip-rule="evenodd" d="M8.34404 7.07537C10.2434 5.16049 13.3354 5.14782 15.2503 7.04705L24.5032 16.2238L33.6819 7.12029C35.5968 5.22102 38.6898 5.23381 40.5892 7.14861L43.7688 10.3556C43.8255 10.4128 43.825 10.505 43.7679 10.5617L33.4729 20.7726C31.558 22.6716 28.4659 22.6591 26.5667 20.7443L24.429 18.59L22.3655 20.6711C20.4661 22.5853 17.374 22.5984 15.4593 20.6994L5.16436 10.4875C5.10766 10.4309 5.10724 10.3385 5.16338 10.2814L8.34404 7.07537ZM39.5179 8.71209C38.1855 7.36915 36.0164 7.36044 34.6731 8.69256L26.0237 17.2717C25.9673 17.3283 25.9666 17.4207 26.0228 17.4777L27.6292 19.0969C28.9614 20.44 31.1306 20.4484 32.4739 19.1164L41.1233 10.5383C41.1804 10.4817 41.1807 10.3894 41.1243 10.3322L39.5179 8.71209ZM14.2601 8.69158C12.9169 7.35943 10.7477 7.36821 9.41533 8.71111L7.80889 10.3312C7.75281 10.3884 7.75301 10.4808 7.80986 10.5373L16.4593 19.1154C17.8024 20.4475 19.9706 20.4386 21.303 19.0959L22.9095 17.4767C22.9662 17.4196 22.9657 17.3274 22.9085 17.2707L14.2601 8.69158Z" fill="#333333"/>
<path d="M27.7903 5.24801C27.7903 3.39625 26.2891 1.89511 24.4374 1.89511C22.5856 1.89511 21.0845 3.39625 21.0845 5.24801C21.0845 7.09976 22.5856 8.6009 24.4374 8.6009V10.496C21.539 10.496 19.1894 8.1464 19.1894 5.24801C19.1894 2.34961 21.539 0 24.4374 0C27.3358 0 29.6854 2.34961 29.6854 5.24801C29.6854 8.1464 27.3358 10.496 24.4374 10.496V8.6009C26.2891 8.6009 27.7903 7.09976 27.7903 5.24801Z" fill="#333333"/>
<path d="M58.6141 16.1225V17.5943H50.1423V4.81473H51.8295V16.1225H58.6141ZM67.7441 14.6687C67.2774 16.8225 65.9312 17.8994 63.7056 17.8994C62.3415 17.8994 61.2645 17.4866 60.4927 16.6251C59.7209 15.7815 59.344 14.5969 59.344 13.0892C59.344 11.5994 59.7389 10.3968 60.5286 9.46349C61.3184 8.53015 62.3594 8.06348 63.6517 8.06348C65.0697 8.06348 66.1287 8.5481 66.8107 9.51733C67.4928 10.4866 67.8518 11.6891 67.8518 13.161V13.3763H60.8876L60.8697 13.484C60.8697 14.4712 61.1209 15.243 61.6415 15.7994C62.144 16.3738 62.862 16.643 63.7594 16.643C64.4235 16.643 64.944 16.4994 65.3389 16.1764C65.7338 15.8712 66.0389 15.3687 66.2543 14.6687H67.7441ZM66.2723 12.1379C66.2005 11.2584 65.9312 10.5763 65.4646 10.0737C64.9979 9.57118 64.3697 9.3199 63.6158 9.3199C62.862 9.3199 62.2517 9.57118 61.7671 10.0737C61.2645 10.5763 60.9773 11.2763 60.8876 12.1379H66.2723ZM77.6717 16.3738V17.5764C77.3487 17.6841 77.0076 17.7559 76.6307 17.7559C75.7512 17.7559 75.3025 17.2892 75.2845 16.3917C74.4051 17.361 73.2922 17.8636 71.9281 17.8636C71.0127 17.8636 70.2948 17.6302 69.7563 17.1635C69.2178 16.6969 68.9666 16.0507 68.9666 15.243C68.9666 13.5917 70.0614 12.6225 72.2512 12.3533C72.3948 12.3174 72.5922 12.2994 72.8794 12.2815C73.9204 12.1558 74.5486 12.0122 74.7999 11.8686C75.0692 11.6712 75.2128 11.3481 75.2128 10.8814C75.2128 9.85836 74.5127 9.35579 73.1127 9.35579C72.3948 9.35579 71.8384 9.49938 71.4794 9.78657C71.1025 10.0737 70.8871 10.5584 70.8153 11.2404H69.3255C69.3435 10.2353 69.7025 9.46349 70.3845 8.92502C71.0666 8.36861 71.9999 8.09937 73.2025 8.09937C74.4948 8.09937 75.464 8.38656 76.1102 8.99682C76.3076 9.17631 76.4512 9.42759 76.5589 9.75067C76.6487 10.0558 76.7025 10.3071 76.7205 10.5045C76.7205 10.702 76.7384 11.0071 76.7384 11.402C76.7384 11.8507 76.7205 12.5327 76.7025 13.4481C76.6666 14.3815 76.6666 15.0635 76.6666 15.5123C76.6666 15.8533 76.7025 16.0866 76.7923 16.2302C76.882 16.3738 77.0435 16.4276 77.2948 16.4276C77.3846 16.4276 77.5102 16.4097 77.6717 16.3738ZM75.2128 12.802C75.1051 12.8738 74.9794 12.9456 74.8717 13.0174C74.7461 13.0712 74.5845 13.1251 74.4051 13.161C74.2256 13.1968 74.0999 13.2148 74.0281 13.2327C73.9563 13.2507 73.8127 13.2686 73.5615 13.3045C73.3102 13.3404 73.1666 13.3584 73.1666 13.3584C72.7897 13.3943 72.5384 13.4302 72.4307 13.4481C72.323 13.4661 72.1076 13.5199 71.7845 13.6097C71.4614 13.6815 71.2461 13.7892 71.1204 13.8969C70.9768 14.0045 70.8512 14.1481 70.7255 14.3635C70.5999 14.5789 70.5461 14.8302 70.5461 15.1174C70.5461 15.584 70.7076 15.961 71.0307 16.2482C71.3537 16.5174 71.8204 16.661 72.3948 16.661C73.1127 16.661 73.7768 16.4456 74.3512 16.0148C74.9256 15.584 75.2128 15.0635 75.2128 14.4892V12.802ZM83.9379 8.11732L83.9199 9.71477C83.8122 9.69682 83.6866 9.69682 83.525 9.69682C83.0404 9.69682 82.6096 9.76862 82.2507 9.91221C81.8917 10.0558 81.6225 10.2532 81.4071 10.4866C81.1917 10.7379 81.0301 11.025 80.8866 11.384C80.7609 11.743 80.6712 12.102 80.6353 12.4609C80.5994 12.8199 80.5814 13.2327 80.5814 13.6815V17.5943H79.0558V8.33271H80.5096V10.325C81.1199 8.85323 82.2507 8.11732 83.9379 8.11732ZM86.8381 8.33271V9.76862C87.592 8.65579 88.651 8.08142 89.9971 8.08142C91.0741 8.08142 91.8638 8.36861 92.3484 8.94297C92.8331 9.51733 93.0843 10.343 93.0843 11.4379V17.5943H91.5587V12.1379C91.5587 11.6891 91.5407 11.3302 91.5048 11.0789C91.4689 10.8276 91.3972 10.5404 91.2895 10.2532C91.1638 9.96606 90.9664 9.75067 90.6792 9.60708C90.392 9.48144 90.0151 9.40964 89.5664 9.40964C87.8074 9.40964 86.9279 10.5225 86.9279 12.7481V17.5943H85.4022V8.33271H86.8381ZM103.291 14.6687C102.825 16.8225 101.478 17.8994 99.2527 17.8994C97.8886 17.8994 96.8117 17.4866 96.0399 16.6251C95.2681 15.7815 94.8911 14.5969 94.8911 13.0892C94.8911 11.5994 95.286 10.3968 96.0758 9.46349C96.8655 8.53015 97.9066 8.06348 99.1989 8.06348C100.617 8.06348 101.676 8.5481 102.358 9.51733C103.04 10.4866 103.399 11.6891 103.399 13.161V13.3763H96.4347L96.4168 13.484C96.4168 14.4712 96.6681 15.243 97.1886 15.7994C97.6912 16.3738 98.4091 16.643 99.3066 16.643C99.9707 16.643 100.491 16.4994 100.886 16.1764C101.281 15.8712 101.586 15.3687 101.801 14.6687H103.291ZM101.819 12.1379C101.748 11.2584 101.478 10.5763 101.012 10.0737C100.545 9.57118 99.9168 9.3199 99.163 9.3199C98.4091 9.3199 97.7989 9.57118 97.3142 10.0737C96.8117 10.5763 96.5245 11.2763 96.4347 12.1379H101.819ZM109.845 8.11732L109.827 9.71477C109.719 9.69682 109.593 9.69682 109.432 9.69682C108.947 9.69682 108.516 9.76862 108.157 9.91221C107.798 10.0558 107.529 10.2532 107.314 10.4866C107.098 10.7379 106.937 11.025 106.793 11.384C106.668 11.743 106.578 12.102 106.542 12.4609C106.506 12.8199 106.488 13.2327 106.488 13.6815V17.5943H104.962V8.33271H106.416V10.325C107.027 8.85323 108.157 8.11732 109.845 8.11732ZM117.868 11.025H116.342C116.234 9.91221 115.481 9.33785 114.081 9.33785C113.488 9.33785 113.022 9.46349 112.699 9.67887C112.357 9.91221 112.196 10.2173 112.196 10.5943C112.196 10.702 112.196 10.8097 112.232 10.9173C112.25 11.025 112.286 11.1148 112.357 11.1866C112.429 11.2584 112.483 11.3302 112.537 11.384C112.591 11.4558 112.681 11.5097 112.806 11.5635C112.932 11.6173 113.022 11.6532 113.093 11.6891C113.165 11.725 113.273 11.7789 113.452 11.8148C113.632 11.8507 113.757 11.8866 113.829 11.9045C113.901 11.9225 114.027 11.9584 114.242 11.9943C114.458 12.0481 114.583 12.084 114.655 12.084C115.086 12.1917 115.427 12.2635 115.642 12.3174C115.858 12.3892 116.163 12.4968 116.558 12.6584C116.952 12.8199 117.24 12.9815 117.455 13.161C117.652 13.3404 117.832 13.5738 117.993 13.8789C118.155 14.184 118.245 14.5251 118.245 14.902C118.245 15.7994 117.886 16.5353 117.186 17.0738C116.486 17.6123 115.552 17.8815 114.404 17.8815C113.147 17.8815 112.178 17.6123 111.496 17.0559C110.814 16.5174 110.455 15.7097 110.419 14.6687H111.927C111.999 15.9789 112.842 16.6251 114.44 16.6251C115.122 16.6251 115.66 16.4994 116.073 16.2123C116.486 15.9251 116.701 15.5481 116.701 15.0815C116.701 14.7763 116.593 14.5251 116.378 14.3097C116.163 14.1122 115.911 13.9686 115.66 13.8789C115.391 13.7892 115.014 13.6815 114.529 13.5558C114.458 13.5558 114.404 13.5379 114.368 13.5199C114.26 13.502 114.027 13.4481 113.668 13.3763C113.309 13.3045 113.057 13.2327 112.914 13.1789C112.752 13.143 112.519 13.0712 112.232 12.9635C111.945 12.8558 111.729 12.7481 111.586 12.6404C111.442 12.5327 111.281 12.3892 111.101 12.2097C110.922 12.0302 110.814 11.8327 110.742 11.5994C110.67 11.3661 110.634 11.0968 110.634 10.7917C110.634 9.96606 110.94 9.30195 111.586 8.79938C112.232 8.31476 113.093 8.06348 114.17 8.06348C115.247 8.06348 116.145 8.33271 116.827 8.83528C117.509 9.35579 117.868 10.0917 117.868 11.025ZM125.304 4.81473H130.545C131.856 4.81473 132.897 5.11986 133.669 5.71218C134.422 6.30449 134.817 7.23783 134.817 8.49425C134.817 11.0789 133.363 12.3533 130.456 12.3533H126.992V17.5943H125.304V4.81473ZM126.974 6.26859V10.9353H130.222C131.138 10.9353 131.856 10.7738 132.358 10.4327C132.861 10.0917 133.112 9.48144 133.112 8.60194C133.112 8.11732 133.04 7.7045 132.879 7.38142C132.717 7.05834 132.484 6.82501 132.161 6.66347C131.856 6.51987 131.533 6.41218 131.192 6.35833C130.869 6.30449 130.456 6.26859 129.989 6.26859H126.974ZM140.658 8.06348C142.058 8.06348 143.135 8.49425 143.925 9.35579C144.697 10.1994 145.092 11.384 145.092 12.9097C145.092 14.4892 144.697 15.7097 143.925 16.5712C143.135 17.4507 142.041 17.8815 140.641 17.8815C139.223 17.8815 138.11 17.4507 137.32 16.5892C136.512 15.7276 136.117 14.543 136.117 12.9994C136.117 11.4917 136.512 10.2891 137.338 9.39169C138.146 8.5122 139.258 8.06348 140.658 8.06348ZM140.623 9.35579C139.725 9.35579 139.007 9.67887 138.487 10.325C137.948 10.9891 137.697 11.8686 137.697 12.9635C137.697 14.1122 137.948 14.9917 138.469 15.6379C138.989 16.2841 139.725 16.5892 140.658 16.5892C141.556 16.5892 142.256 16.2661 142.758 15.6199C143.261 14.9738 143.53 14.0943 143.53 12.9456C143.53 11.8507 143.261 10.9712 142.741 10.325C142.22 9.67887 141.52 9.35579 140.623 9.35579ZM148.524 4.81473V6.68141H146.98V4.81473H148.524ZM148.524 8.33271V17.5943H146.98V8.33271H148.524ZM152.323 8.33271V9.76862C153.077 8.65579 154.136 8.08142 155.482 8.08142C156.559 8.08142 157.349 8.36861 157.834 8.94297C158.318 9.51733 158.57 10.343 158.57 11.4379V17.5943H157.044V12.1379C157.044 11.6891 157.026 11.3302 156.99 11.0789C156.954 10.8276 156.882 10.5404 156.775 10.2532C156.649 9.96606 156.452 9.75067 156.164 9.60708C155.877 9.48144 155.5 9.40964 155.052 9.40964C153.293 9.40964 152.413 10.5225 152.413 12.7481V17.5943H150.888V8.33271H152.323ZM164.828 8.33271V9.58913H162.979V14.9917C162.979 15.2969 162.979 15.4943 162.979 15.584C162.979 15.6917 163.015 15.8174 163.087 15.9789C163.141 16.1405 163.248 16.2482 163.392 16.2841C163.535 16.3379 163.733 16.3558 164.002 16.3558C164.217 16.3558 164.505 16.3379 164.828 16.302V17.6123C164.397 17.6661 164.002 17.6841 163.661 17.6841C163.23 17.6841 162.871 17.6482 162.584 17.5405C162.297 17.4507 162.064 17.343 161.92 17.2174C161.776 17.1097 161.669 16.8943 161.597 16.5892C161.525 16.2841 161.471 16.0328 161.471 15.8174C161.453 15.602 161.453 15.261 161.453 14.7584V14.6866V14.5969V14.5071V9.58913H159.892V8.33271H161.453V5.58653H162.979V8.33271H164.828Z" fill="#333333"/>
</svg>
