<svg width="14" height="14" viewBox="0 0 14 14" fill="none" xmlns="http://www.w3.org/2000/svg">
<path d="M2.42969 0.614258C3.15161 0.0986642 4.15616 0.273527 4.66113 1.00293L5.59277 2.34961C5.88946 2.77826 5.78749 3.36594 5.36328 3.66895L4.62012 4.19922L4.44141 4.32715L4.49707 4.53906C4.62445 5.026 5.00381 5.95889 6.1377 7.09277C7.2716 8.22668 8.20449 8.60602 8.69141 8.7334L8.90332 8.78906L9.03125 8.61035L9.56152 7.86719C9.86459 7.44297 10.4523 7.34099 10.8809 7.6377L12.2275 8.56934C12.9569 9.07436 13.1318 10.0789 12.6162 10.8008L11.5586 12.2812C11.2207 12.7543 10.6356 13.0199 10.041 12.8711C8.79062 12.5578 6.2198 11.6709 3.88965 9.34082C1.55952 7.01069 0.672661 4.43986 0.359375 3.18945C0.210616 2.59485 0.476162 2.00978 0.949219 1.67188L2.42969 0.614258ZM4.1377 1.36523C3.8347 0.927572 3.23198 0.822442 2.79883 1.13184L1.31836 2.18945C1.0281 2.39691 0.89968 2.72802 0.976562 3.03516C1.2727 4.21709 2.11676 6.66948 4.33887 8.8916C6.28321 10.8359 8.40384 11.7248 9.69531 12.1152L10.1953 12.2539C10.5024 12.3307 10.8335 12.2024 11.041 11.9121L12.0986 10.4316C12.408 9.99854 12.3029 9.3958 11.8652 9.09277L10.5195 8.16016L10.2617 7.98242L10.0791 8.2373L9.50977 9.03418C9.33235 9.28258 9.01997 9.45707 8.6709 9.38184C8.10624 9.26001 7.00397 8.85749 5.68848 7.54199C4.37298 6.2265 3.97047 5.12424 3.84863 4.55957C3.77341 4.21052 3.94787 3.89815 4.19629 3.7207L4.99316 3.15137L5.24805 2.96875L5.07031 2.71094L4.1377 1.36523Z" stroke="white" stroke-width="0.635924"/>
</svg>
